<svg width="469" height="469" viewBox="0 0 469 469" fill="none" xmlns="http://www.w3.org/2000/svg">
<path d="M180.923 26.7988C178.164 16.1032 167.219 9.5877 156.797 13.2475C109.645 29.8059 68.8311 61.0742 40.5463 102.696C8.50056 149.853 -5.26749 207.069 1.81777 263.642C8.90302 320.214 36.3562 372.268 79.0417 410.065C121.727 447.862 176.721 468.813 233.735 468.999C290.749 469.185 345.879 448.593 388.81 411.075C431.741 373.557 459.533 321.684 466.987 265.159C474.441 208.634 461.047 151.329 429.309 103.964C401.297 62.1587 360.688 30.6248 313.645 13.7591C303.247 10.0314 292.259 16.4754 289.43 27.1527L278.858 67.062C276.029 77.7393 282.463 88.5679 292.681 92.7623C320.666 104.249 344.776 123.834 361.782 149.213C382.518 180.159 391.269 217.6 386.399 254.531C381.529 291.463 363.37 325.355 335.321 349.868C307.271 374.381 271.251 387.835 234 387.713C196.749 387.592 160.818 373.903 132.929 349.208C105.04 324.513 87.1029 290.503 82.4736 253.54C77.8444 216.577 86.8399 179.194 107.778 148.384C124.948 123.117 149.185 103.69 177.245 92.3857C187.49 88.2581 193.994 77.4718 191.236 66.7762L180.923 26.7988Z" fill="#3D9AFF"/>
<path d="M180.923 26.7988C178.164 16.1032 167.219 9.5877 156.797 13.2475C109.645 29.8059 68.8311 61.0742 40.5463 102.696C8.50056 149.853 -5.26749 207.069 1.81777 263.642C8.90302 320.214 36.3562 372.268 79.0417 410.065C121.727 447.862 176.721 468.813 233.735 468.999C290.749 469.185 345.879 448.593 388.81 411.075C431.741 373.557 459.533 321.684 466.987 265.159C474.441 208.634 461.047 151.329 429.309 103.964C401.297 62.1587 360.688 30.6248 313.645 13.7591C303.247 10.0314 292.259 16.4754 289.43 27.1527L278.858 67.062C276.029 77.7393 282.463 88.5679 292.681 92.7623C320.666 104.249 344.776 123.834 361.782 149.213C382.518 180.159 391.269 217.6 386.399 254.531C381.529 291.463 363.37 325.355 335.321 349.868C307.271 374.381 271.251 387.835 234 387.713C196.749 387.592 160.818 373.903 132.929 349.208C105.04 324.513 87.1029 290.503 82.4736 253.54C77.8444 216.577 86.8399 179.194 107.778 148.384C124.948 123.117 149.185 103.69 177.245 92.3857C187.49 88.2581 193.994 77.4718 191.236 66.7762L180.923 26.7988Z" fill="#3D9AFF"/>
<circle cx="234.5" cy="234.5" r="95.3129" fill="white"/>
</svg>
