<svg width="291" height="245" viewBox="0 0 291 245" fill="none" xmlns="http://www.w3.org/2000/svg">
<path d="M129.497 15.4628C127.645 8.27959 120.247 3.85499 113.491 6.91899C100.591 12.7692 89.4574 22.0836 81.4002 33.9401C70.8094 49.5249 66.2591 68.4343 68.6008 87.131C70.9424 105.828 80.0154 123.031 94.1225 135.522C108.23 148.014 126.405 154.938 145.247 155C164.09 155.061 182.31 148.256 196.498 135.856C210.686 123.457 219.871 106.313 222.335 87.6324C224.798 68.9514 220.372 50.0127 209.883 34.3592C201.903 22.4504 190.83 13.0636 177.969 7.12931C171.233 4.0213 163.807 8.39754 161.907 15.5685V15.5685C160.007 22.7395 164.424 29.9511 170.846 33.6645C177.491 37.5067 183.228 42.8397 187.565 49.3133C194.418 59.5408 197.311 71.9146 195.701 84.1202C194.092 96.3257 188.09 107.527 178.82 115.628C169.55 123.729 157.646 128.176 145.335 128.135C133.024 128.095 121.149 123.571 111.932 115.41C102.715 107.248 96.7867 96.0083 95.2568 83.7925C93.7268 71.5768 96.6998 59.222 103.619 49.0395C107.999 42.5943 113.771 37.2989 120.44 33.5001C126.886 29.8286 131.35 22.646 129.497 15.4628V15.4628Z" fill="#3D9AFF"/>
<circle cx="145.5" cy="77.5" r="31.5" fill="white"/>
<path d="M20.3 225.7C14.3267 225.7 9.94 224.207 7.14 221.22C4.38667 218.233 3.01 213.963 3.01 208.41C3.01 202.857 4.41 198.587 7.21 195.6C10.01 192.613 14.3733 191.12 20.3 191.12C26.2733 191.12 30.66 192.613 33.46 195.6C36.26 198.587 37.66 202.857 37.66 208.41C37.66 213.963 36.26 218.233 33.46 221.22C30.7067 224.207 26.32 225.7 20.3 225.7ZM20.3 219.26C23.8 219.26 26.2733 218.42 27.72 216.74C29.2133 215.013 29.96 212.237 29.96 208.41C29.96 204.583 29.2133 201.83 27.72 200.15C26.2733 198.47 23.8 197.63 20.3 197.63C16.8467 197.63 14.3733 198.47 12.88 200.15C11.4333 201.83 10.71 204.583 10.71 208.41C10.71 212.237 11.4333 215.013 12.88 216.74C14.3733 218.42 16.8467 219.26 20.3 219.26ZM45.0838 240.12V191.82H51.6638L52.0838 195.11C53.5772 193.757 55.2105 192.753 56.9838 192.1C58.7572 191.447 60.8572 191.12 63.2838 191.12C68.0438 191.12 71.7538 192.427 74.4138 195.04C77.0738 197.607 78.4038 201.877 78.4038 207.85C78.4038 213.823 77.0272 218.303 74.2738 221.29C71.5205 224.23 67.7638 225.7 63.0038 225.7C58.9905 225.7 55.5605 224.767 52.7138 222.9V240.12H45.0838ZM61.0438 219.96C67.4838 219.96 70.7038 215.9 70.7038 207.78C70.7038 203.86 69.9805 201.083 68.5338 199.45C67.0872 197.77 64.6605 196.93 61.2538 196.93C57.8472 196.93 55.0005 198.097 52.7138 200.43V217.02C53.7872 217.907 54.9772 218.63 56.2838 219.19C57.6372 219.703 59.2238 219.96 61.0438 219.96ZM102.626 225.7C96.8393 225.7 92.3593 224.277 89.186 221.43C86.0127 218.583 84.426 214.22 84.426 208.34C84.426 203.02 85.7793 198.82 88.486 195.74C91.1927 192.66 95.2993 191.12 100.806 191.12C105.846 191.12 109.626 192.45 112.146 195.11C114.713 197.723 115.996 201.107 115.996 205.26V211.42H91.706C92.0793 214.64 93.246 216.857 95.206 218.07C97.166 219.283 100.153 219.89 104.166 219.89C105.846 219.89 107.573 219.727 109.346 219.4C111.119 219.073 112.659 218.653 113.966 218.14V223.74C112.473 224.393 110.746 224.883 108.786 225.21C106.873 225.537 104.819 225.7 102.626 225.7ZM91.706 206.45H109.276V204.14C109.276 201.853 108.646 200.08 107.386 198.82C106.126 197.513 104.003 196.86 101.016 196.86C97.4693 196.86 95.0193 197.63 93.666 199.17C92.3593 200.71 91.706 203.137 91.706 206.45ZM123.424 225V191.82H130.424L130.774 195.32C132.267 194.153 134.04 193.173 136.094 192.38C138.194 191.54 140.504 191.12 143.024 191.12C147.317 191.12 150.444 192.123 152.404 194.13C154.364 196.137 155.344 199.263 155.344 203.51V225H147.784V203.86C147.784 201.293 147.247 199.497 146.174 198.47C145.147 197.443 143.187 196.93 140.294 196.93C138.567 196.93 136.864 197.28 135.184 197.98C133.55 198.68 132.174 199.59 131.054 200.71V225H123.424ZM179.519 225.7C173.685 225.7 169.275 224.23 166.289 221.29C163.302 218.303 161.809 214.01 161.809 208.41C161.809 202.577 163.442 198.237 166.709 195.39C170.022 192.543 174.432 191.12 179.939 191.12C182.225 191.12 184.139 191.283 185.679 191.61C187.265 191.937 188.782 192.45 190.229 193.15V198.82C187.802 197.607 184.862 197 181.409 197C177.582 197 174.642 197.863 172.589 199.59C170.535 201.27 169.509 204.21 169.509 208.41C169.509 212.377 170.419 215.293 172.239 217.16C174.059 218.98 177.069 219.89 181.269 219.89C184.582 219.89 187.592 219.26 190.299 218V223.81C188.759 224.417 187.102 224.883 185.329 225.21C183.602 225.537 181.665 225.7 179.519 225.7ZM206.723 225.7C204.623 225.7 202.663 225.327 200.843 224.58C199.07 223.833 197.646 222.713 196.573 221.22C195.5 219.68 194.963 217.79 194.963 215.55C194.963 212.377 196.036 209.833 198.183 207.92C200.376 205.96 203.736 204.98 208.263 204.98H218.903V203.51C218.903 201.923 218.646 200.663 218.133 199.73C217.666 198.797 216.78 198.12 215.473 197.7C214.213 197.28 212.346 197.07 209.873 197.07C205.953 197.07 202.29 197.653 198.883 198.82V193.15C200.376 192.543 202.196 192.053 204.343 191.68C206.49 191.307 208.8 191.12 211.273 191.12C216.126 191.12 219.813 192.1 222.333 194.06C224.9 196.02 226.183 199.217 226.183 203.65V225H219.673L219.183 221.64C217.83 222.947 216.15 223.95 214.143 224.65C212.183 225.35 209.71 225.7 206.723 225.7ZM208.753 220.24C211.04 220.24 213.023 219.867 214.703 219.12C216.43 218.327 217.83 217.277 218.903 215.97V210.16H208.403C206.163 210.16 204.53 210.603 203.503 211.49C202.523 212.33 202.033 213.637 202.033 215.41C202.033 217.137 202.616 218.373 203.783 219.12C204.95 219.867 206.606 220.24 208.753 220.24ZM234.644 225V191.82H241.644L241.994 195.32C243.628 194.013 245.424 192.987 247.384 192.24C249.344 191.493 251.444 191.12 253.684 191.12C256.064 191.12 257.908 191.517 259.214 192.31C260.568 193.057 261.594 194.107 262.294 195.46C263.834 194.2 265.608 193.173 267.614 192.38C269.621 191.54 272.024 191.12 274.824 191.12C278.651 191.12 281.474 192.1 283.294 194.06C285.114 196.02 286.024 199.03 286.024 203.09V225H278.534V203.86C278.534 201.293 277.998 199.497 276.924 198.47C275.851 197.443 274.101 196.93 271.674 196.93C270.088 196.93 268.571 197.21 267.124 197.77C265.724 198.33 264.511 199.17 263.484 200.29C263.624 200.803 263.718 201.34 263.764 201.9C263.811 202.46 263.834 203.067 263.834 203.72V225H256.764V203.93C256.764 201.503 256.344 199.73 255.504 198.61C254.664 197.49 253.078 196.93 250.744 196.93C249.111 196.93 247.548 197.327 246.054 198.12C244.608 198.867 243.301 199.777 242.134 200.85V225H234.644Z" fill="white"/>
</svg>
