<svg width="711" height="155" viewBox="0 0 711 155" fill="none" xmlns="http://www.w3.org/2000/svg">
<path d="M61.4975 15.4628C59.6445 8.27959 52.2466 3.85499 45.4906 6.91899C32.591 12.7692 21.4574 22.0836 13.4002 33.9401C2.80935 49.5249 -1.74085 68.4343 0.600754 87.131C2.94236 105.828 12.0154 123.031 26.1225 135.522C40.2297 148.014 58.4045 154.938 77.2472 155C96.0899 155.061 114.31 148.256 128.498 135.856C142.686 123.457 151.871 106.313 154.335 87.6324C156.798 68.9514 152.372 50.0127 141.883 34.3592C133.903 22.4504 122.83 13.0636 109.969 7.12931C103.233 4.0213 95.8066 8.39754 93.9069 15.5685V15.5685C92.0072 22.7395 96.4243 29.9511 102.846 33.6645C109.491 37.5067 115.228 42.8397 119.565 49.3133C126.418 59.5408 129.311 71.9146 127.701 84.1202C126.092 96.3257 120.09 107.527 110.82 115.628C101.55 123.729 89.646 128.176 77.3348 128.135C65.0237 128.095 53.1489 123.571 43.9318 115.41C34.7147 107.248 28.7867 96.0083 27.2568 83.7925C25.7268 71.5768 28.6998 59.222 35.6194 49.0395C39.9994 42.5943 45.7706 37.2989 52.4402 33.5001C58.8863 29.8286 63.3504 22.646 61.4975 15.4628V15.4628Z" fill="#3D9AFF"/>
<circle cx="77.5" cy="77.5" r="31.5" fill="white"/>
<path d="M217.12 113.28C206.197 113.28 198.176 110.549 193.056 105.088C188.021 99.6267 185.504 91.8187 185.504 81.664C185.504 71.5093 188.064 63.7013 193.184 58.24C198.304 52.7787 206.283 50.048 217.12 50.048C228.043 50.048 236.064 52.7787 241.184 58.24C246.304 63.7013 248.864 71.5093 248.864 81.664C248.864 91.8187 246.304 99.6267 241.184 105.088C236.149 110.549 228.128 113.28 217.12 113.28ZM217.12 101.504C223.52 101.504 228.043 99.968 230.688 96.896C233.419 93.7387 234.784 88.6613 234.784 81.664C234.784 74.6667 233.419 69.632 230.688 66.56C228.043 63.488 223.52 61.952 217.12 61.952C210.805 61.952 206.283 63.488 203.552 66.56C200.907 69.632 199.584 74.6667 199.584 81.664C199.584 88.6613 200.907 93.7387 203.552 96.896C206.283 99.968 210.805 101.504 217.12 101.504ZM262.439 139.648V51.328H274.471L275.239 57.344C277.97 54.8693 280.956 53.0347 284.199 51.84C287.442 50.6453 291.282 50.048 295.719 50.048C304.423 50.048 311.207 52.4373 316.071 57.216C320.935 61.9093 323.367 69.7173 323.367 80.64C323.367 91.5627 320.85 99.7547 315.815 105.216C310.78 110.592 303.911 113.28 295.207 113.28C287.868 113.28 281.596 111.573 276.391 108.16V139.648H262.439ZM291.623 102.784C303.399 102.784 309.287 95.36 309.287 80.512C309.287 73.344 307.964 68.2667 305.319 65.28C302.674 62.208 298.236 60.672 292.007 60.672C285.778 60.672 280.572 62.8053 276.391 67.072V97.408C278.354 99.0293 280.53 100.352 282.919 101.376C285.394 102.315 288.295 102.784 291.623 102.784ZM367.659 113.28C357.078 113.28 348.886 110.677 343.083 105.472C337.28 100.267 334.379 92.288 334.379 81.536C334.379 71.808 336.854 64.128 341.803 58.496C346.752 52.864 354.262 50.048 364.331 50.048C373.547 50.048 380.459 52.48 385.067 57.344C389.76 62.1227 392.107 68.3093 392.107 75.904V87.168H347.691C348.374 93.056 350.507 97.1093 354.091 99.328C357.675 101.547 363.136 102.656 370.475 102.656C373.547 102.656 376.704 102.357 379.947 101.76C383.19 101.163 386.006 100.395 388.395 99.456V109.696C385.664 110.891 382.507 111.787 378.923 112.384C375.424 112.981 371.67 113.28 367.659 113.28ZM347.691 78.08H379.819V73.856C379.819 69.6747 378.667 66.432 376.363 64.128C374.059 61.7387 370.176 60.544 364.715 60.544C358.23 60.544 353.75 61.952 351.275 64.768C348.886 67.584 347.691 72.0213 347.691 78.08ZM405.689 112V51.328H418.489L419.129 57.728C421.86 55.5947 425.102 53.8027 428.857 52.352C432.697 50.816 436.921 50.048 441.529 50.048C449.38 50.048 455.097 51.8827 458.681 55.552C462.265 59.2213 464.057 64.9387 464.057 72.704V112H450.233V73.344C450.233 68.6507 449.252 65.3653 447.289 63.488C445.412 61.6107 441.828 60.672 436.537 60.672C433.38 60.672 430.265 61.312 427.193 62.592C424.206 63.872 421.689 65.536 419.641 67.584V112H405.689ZM508.263 113.28C497.596 113.28 489.532 110.592 484.071 105.216C478.61 99.7547 475.879 91.904 475.879 81.664C475.879 70.9973 478.866 63.0613 484.839 57.856C490.898 52.6507 498.962 50.048 509.031 50.048C513.212 50.048 516.711 50.3467 519.527 50.944C522.428 51.5413 525.202 52.48 527.847 53.76V64.128C523.41 61.9093 518.034 60.8 511.719 60.8C504.722 60.8 499.346 62.3787 495.591 65.536C491.836 68.608 489.959 73.984 489.959 81.664C489.959 88.9173 491.623 94.2507 494.951 97.664C498.279 100.992 503.783 102.656 511.463 102.656C517.522 102.656 523.026 101.504 527.975 99.2V109.824C525.159 110.933 522.13 111.787 518.887 112.384C515.73 112.981 512.188 113.28 508.263 113.28ZM558.008 113.28C554.168 113.28 550.584 112.597 547.256 111.232C544.013 109.867 541.411 107.819 539.448 105.088C537.485 102.272 536.504 98.816 536.504 94.72C536.504 88.9173 538.467 84.2667 542.392 80.768C546.403 77.184 552.547 75.392 560.824 75.392H580.28V72.704C580.28 69.8027 579.811 67.4987 578.872 65.792C578.019 64.0853 576.397 62.848 574.008 62.08C571.704 61.312 568.291 60.928 563.768 60.928C556.6 60.928 549.901 61.9947 543.672 64.128V53.76C546.403 52.6507 549.731 51.7547 553.656 51.072C557.581 50.3893 561.805 50.048 566.328 50.048C575.203 50.048 581.944 51.84 586.552 55.424C591.245 59.008 593.592 64.8533 593.592 72.96V112H581.688L580.792 105.856C578.317 108.245 575.245 110.08 571.576 111.36C567.992 112.64 563.469 113.28 558.008 113.28ZM561.72 103.296C565.901 103.296 569.528 102.613 572.6 101.248C575.757 99.7973 578.317 97.8773 580.28 95.488V84.864H561.08C556.984 84.864 553.997 85.6747 552.12 87.296C550.328 88.832 549.432 91.2213 549.432 94.464C549.432 97.6213 550.499 99.8827 552.632 101.248C554.765 102.613 557.795 103.296 561.72 103.296ZM609.064 112V51.328H621.864L622.504 57.728C625.491 55.3387 628.776 53.4613 632.36 52.096C635.944 50.7307 639.784 50.048 643.88 50.048C648.232 50.048 651.603 50.7733 653.992 52.224C656.467 53.5893 658.344 55.5093 659.624 57.984C662.44 55.68 665.683 53.8027 669.352 52.352C673.021 50.816 677.416 50.048 682.536 50.048C689.533 50.048 694.696 51.84 698.024 55.424C701.352 59.008 703.016 64.512 703.016 71.936V112H689.32V73.344C689.32 68.6507 688.339 65.3653 686.376 63.488C684.413 61.6107 681.213 60.672 676.776 60.672C673.875 60.672 671.101 61.184 668.456 62.208C665.896 63.232 663.677 64.768 661.8 66.816C662.056 67.7547 662.227 68.736 662.312 69.76C662.397 70.784 662.44 71.8933 662.44 73.088V112H649.512V73.472C649.512 69.0347 648.744 65.792 647.208 63.744C645.672 61.696 642.771 60.672 638.504 60.672C635.517 60.672 632.659 61.3973 629.928 62.848C627.283 64.2133 624.893 65.8773 622.76 67.84V112H609.064Z" fill="white"/>
</svg>
