<?xml version="1.0" encoding="UTF-8"?>
<svg xmlns="http://www.w3.org/2000/svg" xmlns:xlink="http://www.w3.org/1999/xlink" width="200px" height="44px" viewBox="0 0 201 44" version="1.1">
<g id="surface1">
<path style=" stroke:none;fill-rule:nonzero;fill:rgb(23.921569%,60.392159%,100%);fill-opacity:1;" d="M 17.386719 4.390625 C 16.863281 2.351562 14.769531 1.09375 12.859375 1.964844 C 9.214844 3.625 6.066406 6.269531 3.789062 9.632812 C 0.792969 14.058594 -0.492188 19.425781 0.167969 24.734375 C 0.832031 30.042969 3.398438 34.925781 7.386719 38.472656 C 11.371094 42.015625 16.511719 43.980469 21.835938 44 C 27.164062 44.015625 32.316406 42.085938 36.328125 38.566406 C 40.335938 35.046875 42.933594 30.179688 43.628906 24.875 C 44.328125 19.574219 43.074219 14.195312 40.109375 9.753906 C 37.855469 6.371094 34.722656 3.707031 31.089844 2.023438 C 29.183594 1.140625 27.085938 2.382812 26.546875 4.417969 C 26.011719 6.457031 27.257812 8.503906 29.074219 9.554688 C 30.953125 10.648438 32.574219 12.160156 33.800781 14 C 35.738281 16.902344 36.554688 20.414062 36.101562 23.878906 C 35.644531 27.34375 33.949219 30.523438 31.328125 32.824219 C 28.707031 35.125 25.34375 36.386719 21.863281 36.375 C 18.382812 36.363281 15.023438 35.078125 12.417969 32.761719 C 9.8125 30.445312 8.136719 27.253906 7.707031 23.785156 C 7.273438 20.320312 8.113281 16.8125 10.070312 13.921875 C 11.308594 12.089844 12.9375 10.589844 14.824219 9.507812 C 16.648438 8.46875 17.910156 6.429688 17.386719 4.390625 Z M 17.386719 4.390625 "/>
<path style=" stroke:none;fill-rule:nonzero;fill:rgb(100%,100%,100%);fill-opacity:1;" d="M 30.8125 22 C 30.8125 17.0625 26.828125 13.058594 21.910156 13.058594 C 16.992188 13.058594 13.003906 17.0625 13.003906 22 C 13.003906 26.9375 16.992188 30.941406 21.910156 30.941406 C 26.828125 30.941406 30.8125 26.9375 30.8125 22 Z M 30.8125 22 "/>
<path style=" stroke:none;fill-rule:nonzero;fill:rgb(100%,100%,100%);fill-opacity:1;" d="M 61.378906 32.15625 C 58.292969 32.15625 56.023438 31.382812 54.578125 29.832031 C 53.152344 28.28125 52.441406 26.066406 52.441406 23.183594 C 52.441406 20.300781 53.164062 18.082031 54.613281 16.53125 C 56.0625 14.980469 58.316406 14.207031 61.378906 14.207031 C 64.46875 14.207031 66.734375 14.980469 68.183594 16.53125 C 69.628906 18.082031 70.355469 20.300781 70.355469 23.183594 C 70.355469 26.066406 69.628906 28.28125 68.183594 29.832031 C 66.757812 31.382812 64.492188 32.15625 61.378906 32.15625 Z M 61.378906 28.8125 C 63.1875 28.8125 64.46875 28.378906 65.214844 27.507812 C 65.988281 26.609375 66.375 25.167969 66.375 23.183594 C 66.375 21.195312 65.988281 19.765625 65.214844 18.894531 C 64.46875 18.023438 63.1875 17.585938 61.378906 17.585938 C 59.59375 17.585938 58.316406 18.023438 57.542969 18.894531 C 56.796875 19.765625 56.421875 21.195312 56.421875 23.183594 C 56.421875 25.167969 56.796875 26.609375 57.542969 27.507812 C 58.316406 28.378906 59.59375 28.8125 61.378906 28.8125 Z M 74.191406 39.640625 L 74.191406 14.570312 L 77.59375 14.570312 L 77.808594 16.277344 C 78.582031 15.574219 79.425781 15.054688 80.34375 14.714844 C 81.261719 14.375 82.34375 14.207031 83.601562 14.207031 C 86.058594 14.207031 87.976562 14.886719 89.351562 16.242188 C 90.726562 17.574219 91.414062 19.789062 91.414062 22.890625 C 91.414062 25.992188 90.703125 28.316406 89.28125 29.867188 C 87.859375 31.394531 85.914062 32.15625 83.457031 32.15625 C 81.378906 32.15625 79.605469 31.671875 78.136719 30.703125 L 78.136719 39.640625 Z M 82.441406 29.175781 C 85.769531 29.175781 87.4375 27.070312 87.4375 22.855469 C 87.4375 20.820312 87.0625 19.378906 86.3125 18.53125 C 85.566406 17.660156 84.3125 17.222656 82.550781 17.222656 C 80.789062 17.222656 79.316406 17.828125 78.136719 19.039062 L 78.136719 27.652344 C 78.691406 28.113281 79.304688 28.488281 79.980469 28.777344 C 80.679688 29.042969 81.5 29.175781 82.441406 29.175781 Z M 103.9375 32.15625 C 100.945312 32.15625 98.628906 31.417969 96.988281 29.941406 C 95.347656 28.460938 94.527344 26.199219 94.527344 23.144531 C 94.527344 20.382812 95.230469 18.203125 96.628906 16.605469 C 98.027344 15.007812 100.148438 14.207031 102.996094 14.207031 C 105.601562 14.207031 107.554688 14.898438 108.859375 16.277344 C 110.183594 17.636719 110.847656 19.390625 110.847656 21.546875 L 110.847656 24.746094 L 98.292969 24.746094 C 98.484375 26.414062 99.089844 27.566406 100.101562 28.195312 C 101.113281 28.828125 102.660156 29.140625 104.734375 29.140625 C 105.601562 29.140625 106.496094 29.054688 107.410156 28.886719 C 108.328125 28.71875 109.125 28.5 109.800781 28.234375 L 109.800781 31.140625 C 109.027344 31.480469 108.136719 31.734375 107.121094 31.902344 C 106.132812 32.070312 105.070312 32.15625 103.9375 32.15625 Z M 98.292969 22.164062 L 107.375 22.164062 L 107.375 20.964844 C 107.375 19.777344 107.050781 18.859375 106.398438 18.203125 C 105.746094 17.527344 104.648438 17.1875 103.105469 17.1875 C 101.273438 17.1875 100.003906 17.585938 99.304688 18.386719 C 98.628906 19.183594 98.292969 20.445312 98.292969 22.164062 Z M 114.6875 31.792969 L 114.6875 14.570312 L 118.308594 14.570312 L 118.488281 16.386719 C 119.261719 15.78125 120.175781 15.273438 121.238281 14.859375 C 122.324219 14.425781 123.519531 14.207031 124.820312 14.207031 C 127.039062 14.207031 128.65625 14.726562 129.667969 15.769531 C 130.683594 16.8125 131.1875 18.433594 131.1875 20.636719 L 131.1875 31.792969 L 127.28125 31.792969 L 127.28125 20.820312 C 127.28125 19.488281 127.003906 18.554688 126.449219 18.023438 C 125.917969 17.488281 124.90625 17.222656 123.410156 17.222656 C 122.515625 17.222656 121.636719 17.40625 120.769531 17.769531 C 119.921875 18.132812 119.210938 18.605469 118.632812 19.183594 L 118.632812 31.792969 Z M 143.6875 32.15625 C 140.671875 32.15625 138.390625 31.394531 136.847656 29.867188 C 135.304688 28.316406 134.53125 26.089844 134.53125 23.183594 C 134.53125 20.152344 135.375 17.902344 137.0625 16.421875 C 138.777344 14.945312 141.058594 14.207031 143.902344 14.207031 C 145.085938 14.207031 146.074219 14.292969 146.871094 14.460938 C 147.691406 14.632812 148.476562 14.898438 149.222656 15.261719 L 149.222656 18.203125 C 147.96875 17.574219 146.449219 17.257812 144.664062 17.257812 C 142.683594 17.257812 141.164062 17.707031 140.105469 18.605469 C 139.042969 19.476562 138.511719 21 138.511719 23.183594 C 138.511719 25.242188 138.980469 26.753906 139.921875 27.722656 C 140.863281 28.667969 142.417969 29.140625 144.589844 29.140625 C 146.304688 29.140625 147.859375 28.8125 149.257812 28.160156 L 149.257812 31.175781 C 148.460938 31.492188 147.605469 31.734375 146.691406 31.902344 C 145.796875 32.070312 144.796875 32.15625 143.6875 32.15625 Z M 157.75 32.15625 C 156.664062 32.15625 155.648438 31.964844 154.710938 31.574219 C 153.792969 31.1875 153.058594 30.605469 152.503906 29.832031 C 151.945312 29.03125 151.667969 28.050781 151.667969 26.886719 C 151.667969 25.242188 152.226562 23.921875 153.335938 22.925781 C 154.46875 21.910156 156.207031 21.402344 158.546875 21.402344 L 164.046875 21.402344 L 164.046875 20.636719 C 164.046875 19.816406 163.914062 19.160156 163.648438 18.675781 C 163.40625 18.191406 162.949219 17.839844 162.273438 17.621094 C 161.621094 17.40625 160.65625 17.296875 159.378906 17.296875 C 157.351562 17.296875 155.457031 17.597656 153.695312 18.203125 L 153.695312 15.261719 C 154.46875 14.945312 155.410156 14.691406 156.519531 14.496094 C 157.628906 14.304688 158.824219 14.207031 160.101562 14.207031 C 162.609375 14.207031 164.515625 14.714844 165.820312 15.734375 C 167.144531 16.75 167.808594 18.410156 167.808594 20.710938 L 167.808594 31.792969 L 164.445312 31.792969 L 164.191406 30.050781 C 163.492188 30.726562 162.621094 31.25 161.585938 31.613281 C 160.570312 31.976562 159.292969 32.15625 157.75 32.15625 Z M 158.796875 29.324219 C 159.980469 29.324219 161.003906 29.128906 161.875 28.742188 C 162.765625 28.328125 163.492188 27.785156 164.046875 27.105469 L 164.046875 24.089844 L 158.617188 24.089844 C 157.460938 24.089844 156.613281 24.320312 156.085938 24.78125 C 155.578125 25.21875 155.324219 25.894531 155.324219 26.816406 C 155.324219 27.710938 155.625 28.355469 156.230469 28.742188 C 156.832031 29.128906 157.6875 29.324219 158.796875 29.324219 Z M 172.183594 31.792969 L 172.183594 14.570312 L 175.800781 14.570312 L 175.980469 16.386719 C 176.828125 15.710938 177.753906 15.175781 178.769531 14.789062 C 179.78125 14.402344 180.867188 14.207031 182.023438 14.207031 C 183.253906 14.207031 184.207031 14.414062 184.882812 14.824219 C 185.582031 15.210938 186.113281 15.757812 186.476562 16.460938 C 187.273438 15.804688 188.1875 15.273438 189.226562 14.859375 C 190.261719 14.425781 191.503906 14.207031 192.953125 14.207031 C 194.929688 14.207031 196.390625 14.714844 197.332031 15.734375 C 198.273438 16.75 198.742188 18.3125 198.742188 20.421875 L 198.742188 31.792969 L 194.871094 31.792969 L 194.871094 20.820312 C 194.871094 19.488281 194.59375 18.554688 194.039062 18.023438 C 193.484375 17.488281 192.578125 17.222656 191.324219 17.222656 C 190.503906 17.222656 189.71875 17.367188 188.972656 17.660156 C 188.25 17.949219 187.621094 18.386719 187.089844 18.96875 C 187.164062 19.234375 187.210938 19.511719 187.234375 19.804688 C 187.261719 20.09375 187.273438 20.410156 187.273438 20.746094 L 187.273438 31.792969 L 183.617188 31.792969 L 183.617188 20.855469 C 183.617188 19.597656 183.398438 18.675781 182.964844 18.09375 C 182.53125 17.515625 181.710938 17.222656 180.503906 17.222656 C 179.660156 17.222656 178.851562 17.429688 178.082031 17.839844 C 177.332031 18.226562 176.65625 18.699219 176.054688 19.257812 L 176.054688 31.792969 Z M 172.183594 31.792969 "/>
</g>
</svg>
